<svg width="215" height="169" viewBox="0 0 215 169" fill="none" xmlns="http://www.w3.org/2000/svg">
<g opacity="0.3" clip-path="url(#clip0)">
<path d="M13.47 167.12L12.65 153.43L0.91001 146.34C0.615224 146.157 0.376966 145.895 0.221643 145.585C0.0663197 145.274 -2.42144e-06 144.927 0.0300272 144.581C0.0600569 144.235 0.185266 143.904 0.391776 143.625C0.598286 143.346 0.878033 143.13 1.20001 143L14 138L17.12 124.64C17.2016 124.299 17.3765 123.987 17.625 123.74C17.8736 123.493 18.186 123.32 18.5274 123.24C18.8688 123.16 19.2257 123.176 19.5581 123.288C19.8906 123.399 20.1856 123.601 20.41 123.87L29.12 134.47L42.78 133.3C43.1307 133.268 43.4832 133.336 43.7975 133.495C44.1117 133.653 44.375 133.897 44.5574 134.199C44.7398 134.5 44.8339 134.846 44.8291 135.198C44.8242 135.55 44.7206 135.894 44.53 136.19L37.1 147.72L42.44 160.35C42.5764 160.675 42.6191 161.032 42.5635 161.38C42.5078 161.728 42.356 162.053 42.1251 162.319C41.8942 162.586 41.5934 162.782 41.2568 162.886C40.9201 162.991 40.561 162.999 40.22 162.91L27 159.46L16.63 168.46C16.3643 168.707 16.0327 168.872 15.6752 168.935C15.3178 168.998 14.9498 168.956 14.6157 168.814C14.2816 168.672 13.9956 168.437 13.7923 168.136C13.589 167.836 13.4771 167.483 13.47 167.12Z" fill="#FF7556"/>
<path d="M107.41 65.86C105.797 63.6551 104.874 61.0213 104.759 58.2919C104.643 55.5625 105.339 52.8601 106.76 50.5265C108.18 48.1929 110.261 46.333 112.738 45.1821C115.216 44.0312 117.979 43.641 120.679 44.0608C123.378 44.4806 125.892 45.6916 127.903 47.5406C129.914 49.3896 131.332 51.7935 131.976 54.4482C132.621 57.103 132.464 59.8892 131.525 62.4546C130.585 65.0199 128.906 67.2491 126.7 68.86C123.744 71.0187 120.051 71.9152 116.434 71.3527C112.817 70.7902 109.571 68.8146 107.41 65.86Z" fill="#FFCD7B"/>
<path d="M148 86.47C145.18 83.47 142.48 80.15 139.27 77.6C136.51 75.41 132.66 79.02 134.78 81.9C137.37 85.43 140.87 88.46 143.92 91.6C145.15 92.87 147.52 92.34 148.52 91.08C149.75 89.54 149.23 87.76 148 86.47Z" fill="#FFCD7B"/>
<path d="M158.92 59.42C153.61 59.56 148.46 58.84 143.19 58.42C139.07 58.06 138.33 63.58 142.19 64.66C147.75 66.19 153.85 66.29 159.58 66.14C160.033 66.1146 160.476 65.9978 160.883 65.7965C161.289 65.5952 161.651 65.3137 161.946 64.9688C162.24 64.624 162.462 64.2231 162.598 63.7902C162.734 63.3573 162.78 62.9014 162.735 62.45C162.69 61.9986 162.554 61.561 162.335 61.1637C162.116 60.7664 161.819 60.4175 161.461 60.1381C161.104 59.8587 160.693 59.6546 160.255 59.5381C159.816 59.4215 159.359 59.395 158.91 59.46L158.92 59.42Z" fill="#FFCD7B"/>
<path d="M138.46 43.07C138.24 43.6265 138.239 44.2459 138.458 44.8029C138.677 45.3599 139.1 45.8128 139.64 46.07C142.44 47.63 145.69 45.43 148.01 43.87C150.423 42.2145 152.579 40.2131 154.41 37.93C157.12 34.59 151.9 30.41 149.18 33.76C143.86 40.33 139.72 39.43 138.46 43.07Z" fill="#FFCD7B"/>
<path d="M120.48 22.66C120.2 29.77 118.48 33.2 120.62 35.66C120.874 35.9889 121.198 36.2569 121.569 36.444C121.94 36.6312 122.348 36.7328 122.763 36.7414C123.179 36.7501 123.591 36.6655 123.969 36.4939C124.348 36.3223 124.683 36.0681 124.95 35.75C126.52 34.19 126.3 31.63 126.54 29.58C126.78 27.53 126.99 25.66 127.06 23.68C127.169 22.8129 126.943 21.9368 126.429 21.2306C125.914 20.5243 125.149 20.0413 124.29 19.88C122.67 19.62 120.55 20.88 120.48 22.65V22.66Z" fill="#FFCD7B"/>
<path d="M106.67 30.0999C103.67 27.7699 102.76 26.8199 100.47 26.2999C98.47 25.8499 96.38 28.2499 97.33 30.1499C98.44 32.3699 99.33 32.8799 102.5 35.3299C102.843 35.6037 103.237 35.8072 103.659 35.9288C104.081 36.0503 104.523 36.0876 104.96 36.0383C105.396 35.9891 105.819 35.8544 106.203 35.6419C106.587 35.4295 106.926 35.1433 107.2 34.7999C107.474 34.4565 107.677 34.0626 107.799 33.6405C107.92 33.2185 107.958 32.7766 107.908 32.3402C107.859 31.9037 107.725 31.4813 107.512 31.0969C107.3 30.7125 107.013 30.3737 106.67 30.0999Z" fill="#FFCD7B"/>
<path d="M96.92 46.3901C89.67 45.7301 88.02 45.3101 86.22 46.7201C85.16 47.5501 84.57 49.4301 85.61 50.5401C87.55 52.6101 89.32 52.4001 95.9 52.8601C96.755 52.974 97.6209 52.7538 98.3176 52.2452C99.0142 51.7367 99.4879 50.9791 99.64 50.1301C99.7698 49.2742 99.5571 48.4016 99.048 47.7015C98.5388 47.0015 97.7742 46.5302 96.92 46.3901Z" fill="#FFCD7B"/>
<path d="M87.91 75.8401C86.62 78.0801 89.49 80.9301 91.76 79.8401C94.03 78.7501 94.5 78.0401 103.13 70.1601C103.827 69.6237 104.292 68.8409 104.43 67.9723C104.567 67.1038 104.367 66.2156 103.87 65.4901C102.87 64.1501 100.54 63.4901 99.2 64.7501C90.22 73.0001 89.2 73.5901 87.91 75.8401Z" fill="#FFCD7B"/>
<path d="M113.17 82.22C111.06 90.73 109.71 90.31 109.58 94.79C109.52 96.79 112.58 98.15 114.04 96.79C115.95 95.04 116.3 94.32 117.71 90.33C118.531 88.0136 119.236 85.6572 119.82 83.27C119.953 82.3879 119.734 81.4889 119.21 80.7669C118.686 80.0448 117.9 79.5575 117.02 79.41C116.139 79.288 115.245 79.5128 114.527 80.037C113.809 80.5613 113.322 81.3439 113.17 82.22Z" fill="#FFCD7B"/>
<path d="M210.81 113.94C203.89 104.94 189.3 106.94 182.42 114.75C174.81 123.42 174.55 136.99 181.33 146.2C188.67 156.2 200.79 157.91 209.49 150.52C217.96 143.32 216.03 131.34 206.74 126.52C200.09 123.08 193.59 125.79 192.66 129.52C191.93 132.41 194.77 135.04 197.44 133.34C197.939 132.984 198.326 132.492 198.554 131.924C198.783 131.355 198.844 130.732 198.73 130.13C201.41 128.98 206.73 130.66 209.23 135.67C212.45 142.07 206.62 148.41 200.6 149.93C192.93 151.86 186.04 146.45 182.92 139.78C179.64 132.78 180.66 123.67 185.79 117.78C188.616 114.583 192.583 112.622 196.839 112.319C201.095 112.017 205.3 113.395 208.55 116.16C208.852 116.418 209.241 116.554 209.638 116.54C210.036 116.527 210.414 116.364 210.697 116.086C210.981 115.807 211.15 115.432 211.171 115.035C211.192 114.638 211.063 114.247 210.81 113.94Z" fill="#70B2F5"/>
<path d="M59.68 0L32.67 0.01L49.6 32.03L59.68 0Z" fill="#6EDACA"/>
</g>
<defs>
<clipPath id="clip0">
<rect width="214.89" height="168.9" fill="white"/>
</clipPath>
</defs>
</svg>
