<svg width="237" height="198" viewBox="0 0 237 198" fill="none" xmlns="http://www.w3.org/2000/svg">
<g opacity="0.3" clip-path="url(#clip0)">
<path d="M199.671 193.768L202.407 180.329L215.027 174.959C215.345 174.819 215.617 174.594 215.815 174.308C216.012 174.023 216.127 173.688 216.145 173.341C216.164 172.995 216.087 172.649 215.922 172.344C215.756 172.039 215.51 171.785 215.209 171.611L203.239 164.862L202.027 151.196C201.995 150.847 201.865 150.514 201.654 150.235C201.443 149.955 201.158 149.739 200.831 149.612C200.504 149.485 200.148 149.451 199.804 149.515C199.459 149.578 199.138 149.737 198.878 149.972L188.765 159.242L175.405 156.164C175.062 156.084 174.704 156.101 174.37 156.214C174.037 156.327 173.742 156.532 173.519 156.804C173.296 157.077 173.154 157.407 173.11 157.756C173.065 158.105 173.119 158.46 173.266 158.78L179.002 171.239L171.94 182.994C171.76 183.296 171.667 183.643 171.673 183.996C171.679 184.348 171.784 184.692 171.975 184.988C172.166 185.284 172.437 185.521 172.755 185.671C173.074 185.822 173.428 185.88 173.778 185.84L187.352 184.282L196.354 194.65C196.583 194.932 196.888 195.142 197.233 195.255C197.578 195.367 197.948 195.377 198.299 195.284C198.65 195.191 198.966 194.998 199.209 194.729C199.453 194.46 199.613 194.126 199.671 193.768Z" fill="#FF7556"/>
<path d="M120.894 80.3109C122.801 78.3546 124.084 75.8766 124.583 73.1905C125.081 70.5045 124.771 67.731 123.693 65.221C122.614 62.7109 120.816 60.5771 118.525 59.0894C116.233 57.6018 113.552 56.8271 110.821 56.8634C108.089 56.8996 105.43 57.7453 103.179 59.2933C100.928 60.8413 99.1864 63.0222 98.1751 65.56C97.1638 68.0978 96.928 70.8785 97.4974 73.5504C98.0667 76.2223 99.4158 78.6652 101.374 80.5703C103.997 83.123 107.527 84.5295 111.188 84.4809C114.848 84.4323 118.339 82.9324 120.894 80.3109Z" fill="#FFCD7B"/>
<path d="M77.8103 95.0122C81.024 92.4383 84.1637 89.5307 87.7002 87.4571C90.7406 85.6767 94.0451 89.792 91.5414 92.3455C88.481 95.4764 84.5899 97.9845 81.1289 100.665C79.7326 101.749 77.4606 100.891 76.6476 99.5034C75.6463 97.8058 76.4113 96.1166 77.8103 95.0122Z" fill="#FFCD7B"/>
<path d="M70.8002 66.696C76.0379 67.5808 81.2379 67.5917 86.5147 67.9165C90.6444 68.1391 90.6013 73.7083 86.6278 74.2351C80.908 74.9686 74.8545 74.2103 69.2024 73.2566C68.7575 73.1678 68.3352 72.9898 67.961 72.7333C67.5867 72.4769 67.2683 72.1474 67.0248 71.7645C66.7814 71.3817 66.618 70.9536 66.5445 70.5059C66.4711 70.0582 66.489 69.6003 66.5972 69.1597C66.7055 68.7192 66.9019 68.3051 67.1745 67.9425C67.4471 67.5799 67.7903 67.2762 68.1834 67.0498C68.5766 66.8234 69.0115 66.679 69.462 66.6253C69.9124 66.5715 70.3691 66.6095 70.8045 66.737L70.8002 66.696Z" fill="#FFCD7B"/>
<path d="M93.3549 53.3836C93.4949 53.9655 93.4086 54.5789 93.1134 55.0996C92.8182 55.6202 92.3362 56.0093 91.765 56.188C88.7736 57.339 85.865 54.7041 83.7873 52.8336C81.6308 50.8554 79.7771 48.5708 78.2855 46.0531C76.0718 42.3654 81.8274 38.9605 84.0497 42.6595C88.3936 49.9119 92.6189 49.6027 93.3549 53.3836Z" fill="#FFCD7B"/>
<path d="M114.025 35.7029C113.303 42.7817 114.524 46.4194 112.059 48.5542C111.762 48.8443 111.403 49.0639 111.009 49.1971C110.616 49.3303 110.198 49.3735 109.785 49.3237C109.373 49.2739 108.977 49.1322 108.626 48.9092C108.275 48.6861 107.979 48.3873 107.76 48.0348C106.424 46.2697 107.002 43.766 107.052 41.7026C107.103 39.6392 107.158 37.7583 107.367 35.7881C107.38 34.9142 107.727 34.0786 108.336 33.4517C108.945 32.8248 109.77 32.454 110.643 32.4151C112.284 32.3853 114.206 33.9307 114.026 35.693L114.025 35.7029Z" fill="#FFCD7B"/>
<path d="M126.652 45.0098C129.95 43.1246 130.984 42.3119 133.325 42.1189C135.368 41.9544 137.1 44.6243 135.892 46.3719C134.481 48.4139 133.529 48.7938 130.046 50.774C129.667 50.9968 129.249 51.1429 128.814 51.2039C128.379 51.2649 127.936 51.2397 127.511 51.1296C127.086 51.0196 126.686 50.8269 126.336 50.5625C125.985 50.2981 125.69 49.9672 125.467 49.5887C125.244 49.2102 125.098 48.7916 125.037 48.3566C124.976 47.9217 125.001 47.479 125.111 47.0538C125.221 46.6286 125.414 46.2293 125.678 45.8786C125.943 45.5279 126.274 45.2327 126.652 45.0098Z" fill="#FFCD7B"/>
<path d="M134.016 62.5084C141.287 62.8738 142.98 62.6899 144.564 64.3389C145.496 65.3096 145.816 67.2538 144.631 68.2067C142.419 69.9835 140.696 69.5268 134.117 69.0576C133.254 69.0502 132.428 68.7105 131.81 68.1091C131.191 67.5077 130.829 66.691 130.797 65.8291C130.789 64.9634 131.122 64.1294 131.725 63.5078C132.327 62.8863 133.151 62.5272 134.016 62.5084Z" fill="#FFCD7B"/>
<path d="M138.798 92.9324C139.76 95.3315 136.518 97.7498 134.424 96.3517C132.33 94.9535 131.964 94.1845 124.527 85.1699C123.913 84.5409 123.562 83.7005 123.548 82.8212C123.534 81.942 123.857 81.0907 124.451 80.4422C125.629 79.256 128.029 78.93 129.179 80.3658C136.91 89.796 137.837 90.5234 138.798 92.9324Z" fill="#FFCD7B"/>
<path d="M112.892 95.6991C113.785 104.421 115.181 104.195 114.68 108.649C114.458 110.637 111.237 111.554 109.983 110.002C108.338 108.001 108.093 107.239 107.257 103.091C106.77 100.682 106.404 98.2498 106.16 95.8042C106.153 94.9122 106.496 94.0529 107.116 93.4116C107.736 92.7703 108.583 92.3983 109.475 92.376C110.364 92.3789 111.218 92.7271 111.855 93.3471C112.493 93.9671 112.864 94.8104 112.892 95.6991Z" fill="#FFCD7B"/>
<path d="M11.7633 113.383C19.8794 105.444 34.0436 109.475 39.7577 118.174C46.0738 127.828 44.4242 141.3 36.4171 149.465C27.7446 158.335 15.5046 158.324 7.92948 149.785C0.555378 141.466 4.14982 129.876 14.025 126.41C21.0924 123.938 27.1471 127.535 27.5437 131.359C27.8603 134.323 24.6789 136.527 22.2743 134.469C21.8301 134.046 21.5163 133.505 21.3699 132.91C21.2236 132.315 21.2507 131.69 21.4482 131.11C18.9564 129.594 13.4531 130.51 10.2738 135.119C6.18637 141.003 11.0675 148.099 16.8142 150.45C24.1368 153.439 31.7187 149.051 35.7451 142.886C39.9763 136.416 40.2467 127.253 35.9954 120.701C33.6469 117.138 29.9946 114.64 25.8234 113.742C21.6522 112.844 17.2952 113.618 13.6889 115.898C13.3532 116.112 12.9497 116.191 12.5581 116.122C12.1664 116.053 11.815 115.839 11.5733 115.523C11.3315 115.207 11.2169 114.812 11.2521 114.416C11.2872 114.02 11.4697 113.651 11.7633 113.383Z" fill="#70B2F5"/>
<path d="M177.406 21.8122L204.146 25.6179L182.885 54.9409L177.406 21.8122Z" fill="#6EDACA"/>
</g>
<defs>
<clipPath id="clip0">
<rect width="214.89" height="168.9" fill="white" transform="matrix(-0.990076 -0.140533 -0.140533 0.990076 236.494 30.1992)"/>
</clipPath>
</defs>
</svg>
